<?xml version="1.0" encoding="UTF-8" standalone="no"?>
<!-- Created with Inkscape (http://www.inkscape.org/) -->

<svg
   width="72.528656mm"
   height="92.376198mm"
   viewBox="0 0 72.528656 92.376198"
   version="1.1"
   id="svg1"
   xmlns:xlink="http://www.w3.org/1999/xlink"
   xmlns="http://www.w3.org/2000/svg"
   xmlns:svg="http://www.w3.org/2000/svg">
  <defs
     id="defs1">
    <linearGradient
       id="swatch2">
      <stop
         style="stop-color:#000000;stop-opacity:1;"
         offset="0"
         id="stop2" />
    </linearGradient>
    <linearGradient
       id="swatch6">
      <stop
         style="stop-color:#fff4b8;stop-opacity:1;"
         offset="0"
         id="stop6" />
    </linearGradient>
    <linearGradient
       id="swatch5">
      <stop
         style="stop-color:#ff8b40;stop-opacity:1;"
         offset="0"
         id="stop5" />
    </linearGradient>
    <linearGradient
       id="swatch4">
      <stop
         style="stop-color:#290143;stop-opacity:1;"
         offset="0"
         id="stop4" />
    </linearGradient>
    <linearGradient
       id="swatch1">
      <stop
         style="stop-color:#b53851;stop-opacity:1;"
         offset="0"
         id="stop1" />
    </linearGradient>
    <linearGradient
       xlink:href="#swatch6"
       id="linearGradient14"
       gradientUnits="userSpaceOnUse"
       gradientTransform="matrix(2.25,0,0,2.25,-185.38488,-39.90252)"
       x1="86.637077"
       y1="117.0213"
       x2="118.53871"
       y2="117.0213" />
  </defs>
  <g
     id="layer1"
     transform="translate(-9.1735413,-177.20721)">
    <path
       d="m 38.591316,241.38643 q 0.3429,2.9718 0.9144,6.4008 0.6858,3.3147 0.6858,6.62941 0.1143,3.31469 -0.9144,6.2865 -1.0287,2.97179 -3.8862,5.1435 -1.9431,1.37159 -4.4577,1.8288 -2.4003,0.5715 -4.9149,0.3429 -2.5146,-0.2286 -4.8006,-1.2573 -2.286,-1.0287 -3.8862,-2.7432 -1.9431,-2.0574 -3.3147,-6.4008 -1.3716,-4.3434 -2.286,-10.0584 -0.8001,-5.715 -1.0287,-12.3444 -0.1143,-6.7437 0.2286,-13.4874 0.3429,-6.858 1.3716,-13.3731 1.0287,-6.51511 2.6289,-11.77291 1.6002,-5.37209 3.7719,-9.0297 2.286,-3.77192 5.2578,-5.02922 8.1153,-3.5433 16.9164,-3.7719 8.9154,-0.3429 17.3736,2.0574 7.4295,2.1717 12.230102,6.51512 4.9149,4.3434 7.3152,9.8298 2.4003,5.3721 2.4003,11.3157 0.1143,5.8293 -2.0574,11.2014 -2.1717,5.3721 -6.5151,9.6012 -4.229102,4.1148 -10.515602,6.0579 1.7145,1.8288 3.5433,3.429 1.9431,1.6002 3.771902,3.3147 1.9431,1.7145 3.6576,3.5433 1.7145,1.7145 2.9718,3.8862 1.0287,1.7145 1.4859,3.7719 0.4572,1.9431 0.2286,4.0005 -0.2286,1.9431 -1.143,3.7719 -0.9144,1.82881 -2.5146,3.2004 -2.6289,2.0574 -6.172202,2.6289 -3.429,0.6858 -6.6294,-0.5715 -3.429,-1.25729 -6.0579,-4.34339 -2.6289,-3.0861 -4.9149,-6.7437 -2.1717,-3.77191 -4.1148,-7.5438 -1.8288,-3.88621 -3.7719,-6.7437 z m 0.3429,-20.4597 q 3.6576,1.2573 6.858,0.45721 3.2004,-0.9144 5.6007,-2.85751 2.4003,-2.0574 3.7719,-4.9149 1.3716,-2.8575 1.2573,-5.71499 -0.1143,-2.9718 -1.8288,-5.4864 -1.7145,-2.51461 -5.4864,-4.0005 -4.3434,-1.7145 -7.3152,-0.80011 -2.9718,0.80011 -4.6863,3.2004 -1.6002,2.286 -2.1717,5.60071 -0.5715,3.2004 -0.2286,6.2865 0.3429,2.9718 1.3716,5.3721 1.143,2.286 2.8575,2.85749 z"
       id="path13"
       style="font-weight:bold;font-size:50.8px;font-family:Socafe;-inkscape-font-specification:'Socafe Bold';text-align:center;text-anchor:middle;fill:#ff8b40;stroke:url(#linearGradient14);stroke-width:3;stroke-linecap:round;stroke-linejoin:round;paint-order:stroke fill markers"
       aria-label="R" />
  </g>
</svg>
